<svg width="4" height="4" viewBox="0 0 4 4" fill="none" xmlns="http://www.w3.org/2000/svg">
<path d="M3.51235 2.05907C3.51216 2.34973 3.43266 2.6338 3.28389 2.87539C3.13513 3.11698 2.92377 3.30524 2.67654 3.41637C2.42931 3.52751 2.15731 3.55653 1.8949 3.49978C1.63249 3.44302 1.39146 3.30304 1.20226 3.09751C1.01307 2.89198 0.884206 2.63014 0.83196 2.34508C0.779713 2.06001 0.806427 1.76452 0.908727 1.49594C1.01103 1.22737 1.18432 0.997766 1.40671 0.836152C1.62909 0.674538 1.89059 0.588168 2.15815 0.587957C2.33613 0.587413 2.51245 0.625092 2.67697 0.698829C2.8415 0.772567 2.99098 0.880905 3.11683 1.01762C3.24268 1.15433 3.34241 1.31672 3.41029 1.49545C3.47817 1.67418 3.51285 1.86573 3.51235 2.05907Z" fill="#FF7600"/>
</svg>
