<svg width="8" height="9" viewBox="0 0 8 9" fill="none" xmlns="http://www.w3.org/2000/svg">
<path d="M7.965 3.64328C7.96756 4.12405 7.8764 4.59996 7.69753 5.03972C7.62005 5.22901 7.52717 5.4104 7.41997 5.58172C7.19787 5.93052 6.93137 6.24334 6.62843 6.51086C6.57643 6.55823 6.51942 6.60742 6.4431 6.67118C6.34752 6.74861 6.24102 6.82968 6.11861 6.91713C5.90245 7.06901 5.69443 7.23416 5.49558 7.41176C5.37766 7.51162 5.27543 7.6316 5.19289 7.76702C5.08975 7.96287 5.03776 8.34181 5.03776 8.89383V8.98492H2.77714V8.55861C2.77714 8.22522 2.78469 7.94465 2.79894 7.70053C2.8092 7.4793 2.83048 7.25884 2.86267 7.04011C2.8848 6.84772 2.93817 6.66113 3.0203 6.489C3.16871 6.22027 3.52676 5.855 4.11372 5.37221C4.13887 5.35217 4.16404 5.33121 4.19003 5.31026C4.21435 5.29204 4.23781 5.27291 4.26213 5.25287C4.46547 5.09597 4.6527 4.91579 4.82059 4.71543C4.86965 4.65303 4.91502 4.58731 4.95642 4.51867L4.96733 4.50045C5.09877 4.24751 5.1632 3.95997 5.15348 3.66969C5.15412 3.59625 5.14963 3.52287 5.14007 3.45016C5.11399 3.16657 4.99282 2.90331 4.79963 2.71049C4.59001 2.50176 4.31976 2.37929 4.03574 2.36433C3.99969 2.36069 3.96616 2.35978 3.93177 2.35978C3.79813 2.35897 3.66492 2.37611 3.53515 2.41079C3.29192 2.47598 3.07369 2.62256 2.91131 2.82982C2.82525 2.94018 2.75202 3.06164 2.69329 3.19145C2.54235 3.51847 2.44425 3.95207 2.40148 4.4795L2.39309 4.57515L0 4.2044L0.0117301 4.11422C0.0537782 3.7679 0.12136 3.42581 0.213824 3.09125C0.349678 2.58004 0.566146 2.0983 0.853597 1.66748C0.976459 1.48466 1.11486 1.31479 1.26698 1.16009C1.30303 1.12093 1.34245 1.08267 1.38186 1.04532C1.63792 0.803816 1.92244 0.600411 2.2279 0.440467L2.25474 0.426803C2.83335 0.136289 3.46463 -0.00939821 4.10198 0.000486658C4.16822 0.000486658 4.24621 0.00139736 4.32334 0.00595197C4.95671 0.0233958 5.57834 0.195568 6.14208 0.509692C6.39523 0.652056 6.63242 0.825671 6.84894 1.0271C7.45647 1.56508 7.84766 2.33859 7.93984 3.18416C7.95665 3.33652 7.96505 3.48983 7.965 3.64328V3.64328Z" fill="#FF7600"/>
</svg>
